# xmcd CD database file
#
# Track frame offsets:
#	150
#	13767
#	27069
#	39530
#	52500
#	65047
#	86817
#	98865
#	112392
#	123050
#
# Disc length: 1865 seconds
#
# Revision: 0
# Processed by: cddbd v1.4PL0 Copyright (c) Steve Scherf et al.
# Submitted via: CDex 1.40Release
#
DISCID=7d07470a
DTITLE=Various Artist - Women In Blues - Blues On My Mind
DYEAR=2000
DGENRE=Blues
TTITLE0=At Last - Etta James
TTITLE1=Rich Man's Blues
TTITLE2=I Cried For You - Big Maybelle
TTITLE3=Love Me Or Leave Me - Lena Horne
TTITLE4=Something's Got A Hold On Me - Etta James
TTITLE5=Mr. Magic - Carmen McRae
TTITLE6=Trapped By A Thing Called Love - Denise Lasalle
TTITLE7=Blues On My Weary Mind - Dinah Washington
TTITLE8=Nobody's Business - Billie Holiday
TTITLE9=I Got It Bad And That Ain't Good - Lena Horne
EXTD=YEAR: 2000 ID3G: 0
EXTT0=
EXTT1=
EXTT2=
EXTT3=
EXTT4=
EXTT5=
EXTT6=
EXTT7=
EXTT8=
EXTT9=
PLAYORDER=
